# xmcd
# 
# Track frame offsets:
#     150
#     17765
#     34165
#     54738
#     73943
#     95915
#     112295
#     128365
#     149065
#     168598
# 
# Disc length: 2489
# 
# Revision: 2
# Processed by: cddbd v1.5.2PL0 Copyright (c) Steve Scherf et al.
# Submitted via: fre:ac v1.0.31
# 
DISCID=9c09b70a
DTITLE=Kiều Nga - Tango Tuyệt Vời - Kiều Nga - Người Đẹp Bình Dương Productions
DYEAR=1993
DGENRE=Pop
TTITLE0=Chờ - Lam Phương
TTITLE1=Giọng Buồn Chơi Vơi - Châu Đình An
TTITLE2=Tango Dĩ Vãng - Anh Bằng
TTITLE3=Mùa Đã Sang Rồi Em Có Hay - Hoàng An - Thơ Hoàng Ngọc Ẩn
TTITLE4=Ai Đi Ngoài Sương Gió - Nguyễn Hữu Thiết
TTITLE5=Xe Hoa Một Chiếc - Hoàng Thi Thơ
TTITLE6=Tiễn Bước Sang Ngang - Hoàng Thi Thơ
TTITLE7=Đêm Vũ Trường
TTITLE8=Kiếp Cầm Ca - Huỳnh Anh
TTITLE9=Bài Tango Cuối Cùng - Việt Dzũng
EXTD=
EXTT0=
EXTT1=
EXTT2=
EXTT3=
EXTT4=
EXTT5=
EXTT6=
EXTT7=
EXTT8=
EXTT9=
PLAYORDER=
